<svg xmlns="http://www.w3.org/2000/svg" viewBox="0 0 34.4 34.4"><title>ball</title><g id="Layer_2" data-name="Layer 2"><g id="Layer_1-2" data-name="Layer 1"><path d="M.3,14.1a16.7,16.7,0,0,0,0,6.3l4.1-3.2Z" style="fill:#63d1bb"/><path d="M24.4,1.6A17.2,17.2,0,0,0,9.1,2l7.6,5.6Z" style="fill:#63d1bb"/><path d="M33.9,13.2l-4.8,3.7L34,20.6A16.8,16.8,0,0,0,33.9,13.2Z" style="fill:#63d1bb"/><path d="M9.2,32.4a17.1,17.1,0,0,0,15.7.1l-8.1-6Z" style="fill:#63d1bb"/><path d="M7.9,14.4,1.7,9.8a11.9,11.9,0,0,0-.8,2l5.3,4Z" style="fill:#63d1bb"/><path d="M18.6,25.1l8.3,6.2a1.6,1.6,0,0,0,.8-.6l1-.7-8.4-6.3Z" style="fill:#63d1bb"/><path d="M11.4,11.7,4,6.2A10.9,10.9,0,0,0,2.7,7.9l7,5.2Z" style="fill:#63d1bb"/><path d="M22.1,22.4l8.1,6a10.9,10.9,0,0,0,1.3-1.7L23.8,21Z" style="fill:#63d1bb"/><path d="M14.9,9,7.2,3.2l-.6.4-1.1,1,7.7,5.7Z" style="fill:#63d1bb"/><path d="M25.6,19.6l7,5.3a18,18,0,0,0,.8-2.1l-6.1-4.5Z" style="fill:#63d1bb"/><path d="M26.4,2.7.9,22.6a18,18,0,0,0,.8,2.1L28.2,4A8.3,8.3,0,0,0,26.4,2.7Z" style="fill:#63d1bb"/><path d="M30.7,6.6l-.9-1.1L2.8,26.6a4.4,4.4,0,0,0,.8,1.1l.5.6L31.2,7.2Z" style="fill:#63d1bb"/><path d="M32.3,9,5.6,29.8l1.7,1.4L33.2,11A7.2,7.2,0,0,0,32.3,9Z" style="fill:#63d1bb"/></g></g></svg>