<svg xmlns="http://www.w3.org/2000/svg" viewBox="0 0 32 37.3"><title>flower</title><g id="Layer_2" data-name="Layer 2"><g id="Layer_1-2" data-name="Layer 1"><path d="M16,37.3a16,16,0,0,0,16-16A16,16,0,0,0,16,37.3ZM4.6,16.4a4.5,4.5,0,0,0,4.5,4.5,4.4,4.4,0,0,0,2.5-.8v.3a4.5,4.5,0,1,0,8.9,0v-.3a4.4,4.4,0,0,0,6.9-3.7,4.5,4.5,0,0,0-2.5-4,4.3,4.3,0,0,0,2.5-4,4.4,4.4,0,0,0-6.9-3.6V4.4a4.5,4.5,0,0,0-8.9,0v.4A4.4,4.4,0,0,0,9.1,4,4.5,4.5,0,0,0,4.6,8.4a4.4,4.4,0,0,0,2.6,4A4.5,4.5,0,0,0,4.6,16.4ZM16,8a4.5,4.5,0,1,1-4.5,4.4A4.4,4.4,0,0,1,16,8ZM0,21.3a16,16,0,0,0,16,16A16,16,0,0,0,0,21.3Z" style="fill:#63d1bb"/></g></g></svg>