<svg xmlns="http://www.w3.org/2000/svg" viewBox="0 0 32.7 32.5"><title>gift</title><g id="Layer_2" data-name="Layer 2"><g id="Layer_1-2" data-name="Layer 1"><path d="M2.9,32.5H15.4V18.6H2.9ZM31.1,8.9H23.7L25.1,8a5,5,0,0,0,2.5-4,4,4,0,0,0-1.4-2.9,4.6,4.6,0,0,0-3-1.1,5.5,5.5,0,0,0-3.3,1.1,10.5,10.5,0,0,0-3.5,4,.4.4,0,0,1-.1.3,10.4,10.4,0,0,0-1-1.8,8.5,8.5,0,0,0-2.5-2.5A5.7,5.7,0,0,0,9.5,0,4.6,4.6,0,0,0,6.3,1.3,4.5,4.5,0,0,0,4.9,4.4a4.3,4.3,0,0,0,.6,2.2A7.8,7.8,0,0,0,8.2,8.9H1.6A1.6,1.6,0,0,0,0,10.5v5.9H15.4V8.9h1.9v7.5H32.7V10.5a1.6,1.6,0,0,0-1.6-1.6M8.7,6.5A4.4,4.4,0,0,1,7.5,5.4a2.2,2.2,0,0,1-.3-1A1.7,1.7,0,0,1,7.9,3a2.4,2.4,0,0,1,1.6-.7h0a3.2,3.2,0,0,1,2,.7,8.7,8.7,0,0,1,2.7,3.2,7.4,7.4,0,0,1,.7,2.1c-3-.4-5-1-6.2-1.8M19.3,4.9A6.6,6.6,0,0,1,21.1,3a3.5,3.5,0,0,1,2.1-.7h0a2,2,0,0,1,1.5.6A1.4,1.4,0,0,1,25.3,4c0,.5-.3,1.3-1.5,2.2a16.3,16.3,0,0,1-6.1,2.2,9.3,9.3,0,0,1,1.6-3.5m-2,27.6H29.8V18.6H17.3Z" style="fill:#63d1bb"/></g></g></svg>