<svg xmlns="http://www.w3.org/2000/svg" viewBox="0 0 40.2 62.4"><title>cartAsset 2</title><g id="Layer_2" data-name="Layer 2"><g id="Layer_1-2" data-name="Layer 1"><path d="M15.2,38a7.2,7.2,0,0,0,0,3.6c.5,2.6,1.7,6,2.4,9.7h5c.7-3.7,2-7.1,2.5-9.7a7.2,7.2,0,0,0,0-3.6,3.7,3.7,0,0,0-2-2.3h-6A3.5,3.5,0,0,0,15.2,38Z" style="fill:#149080"/><path d="M27,58H13.2a2.2,2.2,0,0,0-2.3,2.2v2.2H29.3V60.2A2.2,2.2,0,0,0,27,58Z" style="fill:#149080"/><path d="M34.1,2.2H22.4a2.3,2.3,0,0,0-4.6,0H6.1L0,27.7a5.8,5.8,0,0,1,2.6-.9,4.9,4.9,0,0,1,3,1.3A2.6,2.6,0,0,0,7,29a3.1,3.1,0,0,0,1.5-.9,4.4,4.4,0,0,1,2.9-1.3,4.9,4.9,0,0,1,2.9,1.3c.7.6,1.1.9,1.4.9l.6-.2.9-.7a6.2,6.2,0,0,1,2-1.2h.9A4.6,4.6,0,0,1,23,28.1a3.1,3.1,0,0,0,1.5.9c.3,0,.7-.3,1.4-.9a4.9,4.9,0,0,1,3-1.3,4.9,4.9,0,0,1,2.9,1.3l.8.7.6.2a3.1,3.1,0,0,0,1.5-.9,4.4,4.4,0,0,1,2.9-1.4,5.9,5.9,0,0,1,2.6,1Z" style="fill:#149080"/><path d="M23.5,53.5H16.7a1.1,1.1,0,1,0,0,2.2h6.9a1.1,1.1,0,0,0,0-2.2Z" style="fill:#149080"/><path d="M20.1,29l-.6.2-.5.4v3.8h2.3V29.6A3.3,3.3,0,0,0,20.1,29Z" style="fill:#149080"/></g></g></svg>