<svg id="Layer_1" data-name="Layer 1" xmlns="http://www.w3.org/2000/svg" viewBox="0 0 148.1 72.7"><title>cartArtboard 1</title><g id="Layer_2" data-name="Layer 2"><path d="M143.2,31.4a44.8,44.8,0,0,1-4.7,2.8,18.1,18.1,0,0,0-.6-5.2c.1-.3.1-.6.2-1,.3-3,.6-7.1-2-9.2a3.1,3.1,0,0,0-2,.3,1,1,0,0,0-.5-.4,2.4,2.4,0,0,0-.2-.8l-.3-.2c.2-.4.2-.8-.5-1.1l-1.1-.4h-.2a14.3,14.3,0,0,0-2.8-.7,2.3,2.3,0,0,1,.5-1l.4-.5h.4c.4-.2.8-.8.2-1.2a2.1,2.1,0,0,0-2,.3,6.6,6.6,0,0,0-2.1,2.3h-6.1l.2-.3c.1-.6-.9-.5-1.2-.5l-4.7.6c1.4-3.8,3.1-8.6,1-12.2S111.2.1,109,0a13.9,13.9,0,0,0-7,1.6c-4.8,2.7-7.2,7.8-8.3,13.2-.5-.7-2.3-.4-2.6.4l-.3,1a1.6,1.6,0,0,0-.4.7h-.2v-.3q.3-.1.3-.3c.6-2.3,1.2-4.6,2-6.9.2-.7-2.5-.4-2.8.5a24.7,24.7,0,0,0-1.1,3.6l-.5.3h0l-.5-.2v-.9c0-.5-2.8-.1-2.8.7v1.6l-.5.3h-.2v.3h-.1a.4.4,0,0,0,0,.5,1,1,0,0,0,.7.2h.2v.5H83.7c0-.4-.7-.5-1.3-.4h0l-.3-1.8.7-.3a.5.5,0,0,0,.3-.5h0c0-.2-.4-.3-.5-.3H82V9.8c0-.9-2.9-.4-2.9.7s.1,3.6.2,5.4h-.2V14.3c0-1-1.3-1.2-2.2-.8a1,1,0,0,0,.4-1,29.9,29.9,0,0,1-1-4.3c-.2-1.4-3-.7-2.8.8a32,32,0,0,0,1,4.2c.2.9,1.3.9,2.1.6a.8.8,0,0,0-.4.7v.6h-.8A1.3,1.3,0,0,0,74,16.5h-.5a16.8,16.8,0,0,1-.7-3.9c0-.9-1.2-1-2.1-.6v-.2a12.1,12.1,0,0,1-.8-2.5c-.3-1.4-3.2-.6-2.8.7a10.5,10.5,0,0,0,.5,1.9h-.1l-.8.4c-.9.1-1.9.6-1.8,1.2s.1,1,.2,1.5l-1.6.2a10.5,10.5,0,0,1-.6-2.4c-.2-.9-1.6-.9-2.4-.3a21.1,21.1,0,0,0-3.1-5.7A10.9,10.9,0,0,0,46.2,2.9a9,9,0,0,0-5.1,2.6A5.9,5.9,0,0,0,40,10.3a19.5,19.5,0,0,0,1.5,6h-.9l-.8.4H34c-4.2-.2-8.3-.9-12.5-.8-1,0-1.6.7-1.5,1.3a4.3,4.3,0,0,0-2.1,2.3,60,60,0,0,0-5.4-3.3c-.7-.3-3.3.8-2.3,1.3a35.5,35.5,0,0,1,5.3,3.2,2.5,2.5,0,0,0,1.9-.1h.1a9.7,9.7,0,0,0,.3,4.5v1.5c-.4.2-.7.5-.7.8a30,30,0,0,0-.3,4.3.9.9,0,0,0-.5.8,46.9,46.9,0,0,0,.4,9.9,73.6,73.6,0,0,0,1.2,8c.1.4.1.8.2,1.2a10.6,10.6,0,0,0-.3,3.5c-.8.2-1.7.9-1.2,1.6a9.6,9.6,0,0,0,2.6,2.7,2.3,2.3,0,0,0-1.9.6l-2.5,2.3c-.4.4-.3.9.3,1.1a2.4,2.4,0,0,0,2-.6l2.5-2.3c.3-.3.3-.5.2-.7,3.2,1.7,7.3,1.2,11.1.9a44,44,0,0,0-2.1,5c-.3.7,2.5.4,2.8-.4a26.8,26.8,0,0,1,2.1-4.9c3.7.1,7.5.1,11.2,0,.1.2.4.3.7.4a35,35,0,0,0,9.7-.7l14.4-.8c7.5-.2,15.1-.4,22.6-.4l.3.3a1.3,1.3,0,0,0,1,.4h2.9l2.3.2a2,2,0,0,0,.8.4l11.4.7a1.4,1.4,0,0,0,.9.3c7,.1,15.2,2.8,21.5-1.7.5-.4.3-.9-.2-1h-.4c0-.1,0-.1.1-.1a85.1,85.1,0,0,0,2.9-8.5,1,1,0,0,0,.6-.9c.1-1.2.2-2.4.4-3.6s.3-1.8.5-2.7.8-4.4,1-6.5a54.5,54.5,0,0,0,6.6-3.9C146.6,31.4,144.2,30.7,143.2,31.4Zm-55.4-15a.1.1,0,0,0-.1.1c.1-.3.1-.6.2-1H88A2.9,2.9,0,0,1,87.8,16.4Z"/><path d="M63.3,12.6c.1.2.5.2.7.2a2,2,0,0,0,1.1-.2c.4-.1,1.1-.5.8-1.1s-.6-1.1-1-1.7-.5-.2-.7-.2l-1.1.2c-.4.2-1.1.6-.8,1.1A15.1,15.1,0,0,0,63.3,12.6Z"/><path d="M20.7,10.9c.2.7,1.1.7,1.6.5s1.4-.6,1.2-1.2a3.8,3.8,0,0,0-.9-1.8,1.9,1.9,0,0,0-1.9-.2c-.4.2-1.2.9-.7,1.4A2.7,2.7,0,0,1,20.7,10.9Z"/><path d="M30.7,13.9c.8,0,3-1.3,1.1-1.3S28.8,13.9,30.7,13.9Z"/><path d="M122.6,12.3h1a2.4,2.4,0,0,0,1-.5,4.8,4.8,0,0,0,.9-1.1c.1-.2.2-.4,0-.6a1.1,1.1,0,0,0-.7-.3l-1.2.2c-.2.1-.6.3-.7.6l-.4.5h0l-.2.2a.5.5,0,0,0-.3.6A.9.9,0,0,0,122.6,12.3Z"/><path d="M135.9,17.7a4.4,4.4,0,0,0,1.9-.7,20.4,20.4,0,0,0,3.6-3.6c.3-.4-1.1-.3-1.1-.2s-1.4.2-1.7.7a18.2,18.2,0,0,1-3.4,3.4C134.7,17.7,135.6,17.7,135.9,17.7Z"/><path d="M146.7,44.8h-4.8c-.6,0-1.5.4-1.6,1.1s.8.9,1.3.9h4.9c.6,0,1.5-.4,1.5-1.1S147.3,44.8,146.7,44.8Z"/><path d="M57,60.8c-.5.1-1.4.3-1.6.8A30.4,30.4,0,0,0,54,65.5c-.2.7,2.6.3,2.8-.4a22.4,22.4,0,0,1,1.4-3.9C58.4,60.6,57.2,60.8,57,60.8Z"/><path d="M61.6,63.4h-1l-1,.4c-.1.1-.3.2-.3.4a24725056409709.4,24725056409709.4,0,0,1-.2.6h0c0,.1-.1.2.1.3h.7L61,65a3,3,0,0,0,.8-.4c.1-.2.2-.3.2-.5a1.3,1.3,0,0,0,.1-.6C62.1,63.4,61.7,63.4,61.6,63.4Z"/><path d="M116.7,67.1c-.4-.7-3.1.3-2.9.7s2,3.1,3,4.7,3-.4,2.8-.8A44.3,44.3,0,0,1,116.7,67.1Z"/><path d="M120.7,64.7c-.2-.6-1-.5-1.6-.4s-1.5.6-1.2,1.2l1.2,2.3a1.3,1.3,0,0,0,1.6.4c.4-.1,1.5-.6,1.2-1.1Z"/><path d="M5.7,43.1l-4.5,1c-.6.1-1.4.6-1.2,1.3s1.2.7,1.7.6l4.5-1c.5-.1,1.3-.7,1.1-1.3S6.2,43,5.7,43.1Z"/></g><g id="Layer_1-2" data-name="Layer 1"><path d="M43.8,40.1c-.1-2.7-.6-5.4-.5-8.1s.4-4.5-.4-6.6a6.4,6.4,0,0,0,.2-.7c.1-1-3.3-.5-3.9.5a1,1,0,0,0-.4,1c.1,0,.1.1.1.2a73.8,73.8,0,0,1-2.6,9.5L35,39.5a35.9,35.9,0,0,1-1.7-3.4c-1.4-3.5-2.6-7-4.3-10.3.2-1.6-3.2-1.4-3.9,0a9.5,9.5,0,0,0-.5,5.3,41.7,41.7,0,0,1,.4,6.1c.1,4.1.4,8.1.4,12.1a1.2,1.2,0,0,0-.1,1.4l.6.5c.9.7,3.6.1,3.6-1.3-.1-4.1-.4-8.3-.5-12.4V36.2l.2.5a28.6,28.6,0,0,0,2.2,4.7,20.7,20.7,0,0,1,1.8,4.7.7.7,0,0,0-.2.7c-.1.2,0,.3.2.4s1.9.2,2.6,0l.8-.5c.3-.2.9-.7.7-1.1a.4.4,0,0,0-.1-.3,18,18,0,0,0,1-4,33.8,33.8,0,0,1,1.3-4.2c.1.7.1,1.3.2,1.9.2,2.6,0,5.1,0,7.7a10.1,10.1,0,0,0,.2,2.5,7.4,7.4,0,0,1,.3,1.9c-.6.6-.5,1.3.4,1.4a3.2,3.2,0,0,0,2.8-.7c1.2-1.1.6-2.9.3-4.3S43.8,42.5,43.8,40.1Z" style="fill:#fff"/><path d="M52.2,40.8c-.1-2-.8-3.9-.8-5.9a54.3,54.3,0,0,0-.1-7c-.2-.7-4.1.1-4,1.1a45.2,45.2,0,0,1,.2,6.4,29.7,29.7,0,0,0,.7,5.9c.3,2.1-.1,4.2.2,6.3s.7,2.8,0,3.6,1.5.4,1.6.4a3.8,3.8,0,0,0,2.3-1.1c.7-.8.2-2.4.1-3.4S52.3,42.9,52.2,40.8Z" style="fill:#fff"/><path d="M68.7,37.4c-2.1-2.8-6-.7-8.7-1.5s-1.4-2.3-1.4-3.4-.1-2.8-.2-4.2a3.2,3.2,0,0,1,.7-3l.8-.3H61c1.6-.1,4.7.2,4.1,2.5s3.6.4,3.9-.6c1.2-4.7-7.4-3.8-9.8-3.1s-4.7,1.8-4.8,4.4a21.9,21.9,0,0,0,.3,3.6c.1,1.4-.2,2.8.3,4.2,1.1,3,5.6,1.6,7.8,1.7,3.9.3,2.8,5.6,2.8,8s1.2,3.5.2,4.5-2,.7-2.8.8-2.2.3-2.8-.4.1-3.9-.1-5.5-4.1-.1-3.9,1c.3,2.7-1.4,6.2,2.4,6.7a19.6,19.6,0,0,0,7.6-.9,8,8,0,0,0,3.2-1.9c1.1-.9.7-2.3.5-3.5C69.2,43.4,70.6,40,68.7,37.4Z" style="fill:#fff"/><path d="M86.2,37.2c-.2-3.8-.7-7.5-.8-11.4,0-1.9-4-1.3-3.9.4,0,3.6.5,7.2.6,10.9v.2l-6,.2c.2-4.6-.6-9.3-.4-14,0-.5-3.9,0-3.9,1.1-.2,4.5.5,9,.4,13.5L72,44.6a18.6,18.6,0,0,0,.4,3.3,9.2,9.2,0,0,1,.2,3.3c-.3.8,3.6.3,3.9-.7s-.3-4.1-.4-5.9a31.3,31.3,0,0,1,0-5.3,32.1,32.1,0,0,1,6.2,0l.3,4.2c.1,1.2.2,2.3.2,3.5a13.7,13.7,0,0,1-.2,3.5c-.8,2.1,3.2,1.9,3.7.4s.5-4.3.4-6.3S86.2,39.7,86.2,37.2Z" style="fill:#fff"/><path d="M103.2,41.8a70.7,70.7,0,0,0-3.6-7.9l3-5.9c.8-1.9,1.4-3.9,3.1-5.2s.5-.9-.3-.9a4,4,0,0,0-2.8.7,11.3,11.3,0,0,0-3.2,4.3c-1,2.1-1.9,4.1-3,6.1,0,.2-.1.3-.2.5a1.1,1.1,0,0,0-.6,1.3c-.8,1.5-1.6,3.1-2.6,4.6-.3-5.6-.9-11.1-1.1-16.7-.1-1.3-4-.5-4,1,.3,7,1.3,13.9,1.3,20.8h0c-.3.3-.2.4,0,.6a47.8,47.8,0,0,1-.2,5.3c-.5.7.5,1.1,1.1,1.1h.1c.8,0,2.7-.3,2.8-1.4s.2-4.2.2-6.3a33,33,0,0,0,4.1-5.7,37.6,37.6,0,0,1,2,4.6c.9,2.8,2.3,5.3,3.2,8.1s4.4.8,3.9-1.1S104.2,44.5,103.2,41.8Z" style="fill:#fff"/><path d="M127,37.1c-.3-.9-1.4-.9-2.3-.8s-.1-.7-.1-1c-.1-2.7-.1-5.4-.4-8.1s-1.6-3.4-4-3.3a24.3,24.3,0,0,0-7.5,1.4,7.1,7.1,0,0,0-4.6,5.8c-.6,3,.2,6.2.4,9.3s0,7.1,0,10.6c0,.6,4,0,4-1.1V41.5c0-.8-.1-1.6-.1-2.4s3.7,0,5.1.1a11.2,11.2,0,0,0,3.2-.3c.1,2.4.1,4.7.2,7s.5,3.6-.3,4.6,1.5.3,1.6.3a4,4,0,0,0,2.3-1c.9-1.2.4-3.9.4-5.2s-.1-3.9-.2-5.8C125.9,38.7,127.2,37.9,127,37.1Zm-14.8-.2-.3-3.7c-.2-2.4.1-5.7,2.3-7.1a6.4,6.4,0,0,1,2.4-.4,3.8,3.8,0,0,1,2.8.1c1.3.9,1,3.7,1,5s.2,4,.3,6H119A30.9,30.9,0,0,0,112.2,36.9Z" style="fill:#fff"/><path d="M48.8,25.2a4.7,4.7,0,0,0,1.5-.6l.2-.2c.5-.3,1-.8.8-1.3a7.1,7.1,0,0,1-.5-3.5c0-1-.9-1.2-1.8-1.2s-2.1.6-2.2,1.6a15.1,15.1,0,0,0,.2,3l-.2.3a.8.8,0,0,0,.2.6v.5a1,1,0,0,0,.4.5A2.2,2.2,0,0,0,48.8,25.2Z" style="fill:#fff"/></g></svg>