<svg xmlns="http://www.w3.org/2000/svg" viewBox="0 0 54.2 23.2"><title>rocket</title><g id="Layer_2" data-name="Layer 2"><g id="Layer_1-2" data-name="Layer 1"><path d="M40.3,5.7A46.3,46.3,0,0,0,28,4a45.2,45.2,0,0,0-7.8.7L13.5,0H0L5.8,6.2h8.5A22.4,22.4,0,0,0,7.5,9.7v3.8A24,24,0,0,0,14.4,17H5.8L0,23.2H13.5l6.8-4.7a43.8,43.8,0,0,0,7.7.6,50.9,50.9,0,0,0,12.3-1.6,10.6,10.6,0,0,1-1.9-5.9A10.6,10.6,0,0,1,40.3,5.7Z" style="fill:#63d1bb"/><path d="M43.7,6.7a8.7,8.7,0,0,0-1.9,4.9,7.5,7.5,0,0,0,1.9,4.8,48.2,48.2,0,0,0,10.5-4.8A51.1,51.1,0,0,0,43.7,6.7Z" style="fill:#63d1bb"/></g></g></svg>