<svg xmlns="http://www.w3.org/2000/svg" viewBox="0 0 485.2 485.2"><title>Asset 1</title><g id="Layer_2" data-name="Layer 2"><g id="Capa_1" data-name="Capa 1"><g style="opacity:0.2"><path d="M471.9,407.6,360.6,296.2a214.9,214.9,0,0,1-64.4,64.4L407.6,471.9a45.5,45.5,0,0,0,64.3-64.3Z"/><path d="M363.9,182C363.9,81.5,282.4,0,182,0S0,81.5,0,182,81.5,363.9,182,363.9,363.9,282.4,363.9,182ZM182,318.4c-75.3,0-136.5-61.2-136.5-136.4A136.6,136.6,0,0,1,182,45.5c75.2,0,136.4,61.2,136.4,136.5S257.2,318.4,182,318.4Z"/><path d="M75.8,182h30.3A76.1,76.1,0,0,1,182,106.1V75.8A106.3,106.3,0,0,0,75.8,182Z"/></g></g></g></svg>