<svg xmlns="http://www.w3.org/2000/svg" viewBox="0 0 60 59.6"><title>cartLayer 1</title><g id="Layer_2" data-name="Layer 2"><g id="Layer_1-2" data-name="Layer 1"><path d="M0,43.7,27.4,59.6V36.3L0,20.3ZM51.3,12.4v2.5c0,1.8-3.4,3.3-7.7,3.3s-7.7-1.5-7.7-3.3V10.8h0c.3,1.7,3.6,3.1,7.7,3.1s7.7-1.5,7.7-3.3-3.4-3.3-7.7-3.3h-1l-5-2.9V7.6c0,1.8-3.4,3.2-7.7,3.2a12.4,12.4,0,0,1-6.4-1.4l-.7-.6a1.7,1.7,0,0,1-.6-1.2v-3L17.4,7.4H16.3c-4.2,0-7.7,1.5-7.7,3.3s3.5,3.3,7.7,3.3,7.5-1.4,7.7-3.1h.1v4.1c0,1.8-3.5,3.3-7.8,3.3s-7.7-1.5-7.7-3.3V12.5l-6,3.4,27.6,16L57.5,16ZM37.7,22.6c0,1.8-3.5,3.3-7.7,3.3s-7.8-1.5-7.8-3.3V18.5h.1c.2,1.8,3.6,3.1,7.7,3.1s7.4-1.3,7.7-3.1h0v4.1ZM32.6,36.5V59.6L60,43.7V20.5ZM29.9,6.6c4.3,0,7.7-1.5,7.7-3.3S34.2,0,29.9,0s-7.7,1.5-7.7,3.3,3.4,3.3,7.7,3.3" style="fill:#149080"/></g></g></svg>