<svg xmlns="http://www.w3.org/2000/svg" viewBox="0 0 1150 34"><title>cartAsset 1</title><g id="Layer_2" data-name="Layer 2"><g id="Layer_1-2" data-name="Layer 1"><path d="M1121.3,0c-14.4,0-14.4,14-28.8,14s-14.4-14-28.7-14-14.4,14-28.8,14-14.4-14-28.7-14-14.4,14-28.8,14S963.1,0,948.8,0,934.4,14,920,14,905.6,0,891.3,0s-14.4,14-28.8,14S848.1,0,833.8,0,819.4,14,805,14,790.6,0,776.3,0s-14.4,14-28.8,14S733.2,0,718.8,0,704.4,14,690,14,675.7,0,661.3,0s-14.4,14-28.8,14S618.2,0,603.8,0,589.4,14,575,14,560.7,0,546.3,0s-14.4,14-28.8,14S503.2,0,488.8,0,474.4,14,460,14,445.7,0,431.3,0s-14.4,14-28.8,14S388.2,0,373.8,0,359.4,14,345,14,330.7,0,316.3,0s-14.4,14-28.8,14S273.2,0,258.8,0,244.4,14,230,14,215.7,0,201.3,0s-14.4,14-28.8,14S158.2,0,143.8,0,129.4,14,115,14,100.7,0,86.3,0,71.9,14,57.5,14,43.1,0,28.8,0,14.4,14,0,14V34H1150V14C1135.6,14,1135.6,0,1121.3,0Z" style="fill:#fff"/></g></g></svg>