<svg id="Layer_2" data-name="Layer 2" xmlns="http://www.w3.org/2000/svg" viewBox="0 0 1150 23"><title>cartArtboard 1</title><path d="M1150,23c-9,0-13.7-4.6-17.5-8.3S1126.6,9,1121.3,9s-7.9,2.4-11.3,5.7-8.5,8.3-17.5,8.3-13.7-4.6-17.5-8.3S1069.1,9,1063.8,9s-7.9,2.4-11.3,5.7S1044,23,1035,23s-13.7-4.6-17.5-8.3S1011.6,9,1006.3,9s-7.9,2.4-11.3,5.7S986.5,23,977.5,23s-13.7-4.6-17.5-8.3S954.1,9,948.8,9s-7.9,2.4-11.3,5.7S929,23,920,23s-13.7-4.6-17.5-8.3S896.6,9,891.3,9s-7.9,2.4-11.3,5.7S871.5,23,862.5,23s-13.7-4.6-17.5-8.3S839.1,9,833.8,9s-7.9,2.4-11.3,5.7S814,23,805,23s-13.7-4.6-17.5-8.3S781.6,9,776.3,9s-7.9,2.4-11.3,5.7S756.5,23,747.5,23s-13.7-4.6-17.5-8.3S724.1,9,718.8,9s-7.8,2.4-11.3,5.7S699,23,690,23s-13.7-4.6-17.5-8.3S666.6,9,661.3,9s-7.8,2.4-11.2,5.7S641.6,23,632.5,23s-13.7-4.6-17.5-8.3S609.1,9,603.8,9s-7.8,2.4-11.2,5.7S584.1,23,575,23s-13.7-4.6-17.5-8.3S551.6,9,546.3,9s-7.8,2.4-11.2,5.7S526.6,23,517.5,23s-13.7-4.6-17.5-8.3S494.2,9,488.8,9s-7.8,2.4-11.2,5.7S469.1,23,460,23s-13.7-4.6-17.5-8.3S436.7,9,431.3,9s-7.8,2.4-11.2,5.7S411.6,23,402.5,23s-13.7-4.6-17.5-8.3S379.2,9,373.8,9s-7.8,2.4-11.2,5.7S354.1,23,345,23s-13.7-4.6-17.5-8.3S321.6,9,316.3,9s-7.8,2.4-11.2,5.7S296.6,23,287.5,23s-13.7-4.6-17.5-8.3S264.1,9,258.8,9s-7.8,2.4-11.2,5.7S239.1,23,230,23s-13.7-4.6-17.5-8.3S206.6,9,201.3,9s-7.8,2.4-11.2,5.7S181.6,23,172.5,23s-13.7-4.6-17.5-8.3S149.1,9,143.8,9s-7.8,2.4-11.3,5.7S124,23,115,23s-13.7-4.6-17.5-8.3S91.6,9,86.3,9,78.4,11.4,75,14.7,66.5,23,57.5,23,43.8,18.4,40,14.7,34.1,9,28.8,9s-7.9,2.4-11.3,5.7S9,23,0,23V14c5.4,0,7.8-2.4,11.2-5.7S19.7,0,28.8,0,42.5,4.6,46.3,8.3,52.2,14,57.5,14s7.8-2.4,11.3-5.7S77.3,0,86.3,0,100,4.6,103.8,8.3,109.7,14,115,14s7.9-2.4,11.3-5.7S134.8,0,143.8,0s13.7,4.6,17.5,8.3,5.9,5.7,11.2,5.7,7.9-2.4,11.3-5.7S192.3,0,201.3,0,215,4.6,218.8,8.3,224.7,14,230,14s7.9-2.4,11.3-5.7S249.8,0,258.8,0s13.7,4.6,17.5,8.3,5.9,5.7,11.2,5.7,7.9-2.4,11.3-5.7S307.3,0,316.3,0,330,4.6,333.8,8.3,339.7,14,345,14s7.9-2.4,11.3-5.7S364.8,0,373.8,0s13.7,4.6,17.5,8.3,5.9,5.7,11.2,5.7,7.9-2.4,11.3-5.7S422.3,0,431.3,0,445,4.6,448.8,8.3,454.7,14,460,14s7.9-2.4,11.3-5.7S479.8,0,488.8,0s13.7,4.6,17.5,8.3,5.9,5.7,11.2,5.7,7.9-2.4,11.3-5.7S537.3,0,546.3,0,560,4.6,563.8,8.3,569.7,14,575,14s7.9-2.4,11.3-5.7S594.8,0,603.8,0s13.7,4.6,17.5,8.3,5.9,5.7,11.2,5.7,7.9-2.4,11.3-5.7S652.3,0,661.3,0,675,4.6,678.8,8.3,684.7,14,690,14s7.9-2.4,11.3-5.7S709.8,0,718.8,0s13.7,4.6,17.5,8.3,5.9,5.7,11.2,5.7,7.8-2.4,11.3-5.7S767.3,0,776.3,0,790,4.6,793.8,8.3,799.7,14,805,14s7.8-2.4,11.3-5.7S824.7,0,833.8,0s13.7,4.6,17.5,8.3,5.9,5.7,11.2,5.7,7.8-2.4,11.2-5.7S882.2,0,891.3,0,905,4.6,908.8,8.3,914.7,14,920,14s7.8-2.4,11.2-5.7S939.7,0,948.8,0s13.7,4.6,17.5,8.3,5.9,5.7,11.2,5.7,7.8-2.4,11.2-5.7S997.2,0,1006.3,0s13.7,4.6,17.5,8.3,5.8,5.7,11.2,5.7,7.8-2.4,11.2-5.7,8.5-8.3,17.6-8.3,13.7,4.6,17.5,8.3,5.8,5.7,11.2,5.7,7.8-2.4,11.2-5.7,8.5-8.3,17.6-8.3,13.7,4.6,17.5,8.3,5.8,5.7,11.2,5.7Z" style="fill:#cecece"/></svg>